<svg aria-hidden="true" style="position: absolute; width: 0; height: 0; overflow: hidden;" version="1.1" xmlns="http://www.w3.org/2000/svg" xmlns:xlink="http://www.w3.org/1999/xlink">
<defs>
<symbol id="icon-icon-logo" viewBox="0 0 32 32">
<path d="M2.264 0h26.504c1.25 0.001 2.263 1.014 2.263 2.264v0 26.504c-0.001 1.25-1.014 2.263-2.264 2.263h-26.503c-1.25 0-2.264-1.014-2.264-2.264v0-26.503c0-1.25 1.014-2.264 2.264-2.264v0zM4.525 26.505h4.525v-14.869h-4.525zM9.697 6.788c0-1.607-1.303-2.91-2.91-2.91s-2.91 1.303-2.91 2.91v0c0 1.607 1.303 2.91 2.91 2.91s2.91-1.303 2.91-2.91v0zM12.283 11.636v14.869h4.525v-7.202c0-2.414 0.889-3.949 3.026-3.949 1.541 0 2.145 1.423 2.145 3.949v7.202h4.526v-8.213c0-4.433-1.061-6.85-5.531-6.85-2.331 0-3.884 1.092-4.489 2.306v-2.112z"></path>
</symbol>
<symbol id="icon-text-logo" viewBox="0 0 124 32">
<path d="M124.473 31.741h-5.809v-2.471h-0.062c-1.292 1.498-3.537 2.73-7.342 2.73-5.186 0-9.653-3.902-9.653-10.609 0-6.39 4.402-10.655 9.848-10.655 3.371 0 5.464 1.199 6.732 2.73h0.062v-12.844h6.224v31.118zM113.020 15.404c-3.558 0-5.558 2.537-5.558 5.91 0 3.375 2 6.018 5.558 6.018 3.562 0 5.645-2.575 5.645-6.018 0-3.539-2.083-5.91-5.645-5.91v0z"></path>
<path d="M98.876 28.398c-1.469 1.902-4.493 3.601-9.377 3.601-6.516 0-10.665-4.313-10.665-11.093 0-6.022 3.759-10.172 10.848-10.172 6.122 0 9.898 4.021 9.898 11.093 0 0.707-0.114 1.407-0.114 1.407h-14.758l0.035 0.641c0.409 1.788 1.759 3.975 4.859 3.975 2.705 0 4.56-1.454 5.398-2.593l3.877 3.141zM93.59 19.293c0.041-2.189-1.564-4.408-4.095-4.408-3.012 0-4.62 2.353-4.788 4.408h8.883z"></path>
<path d="M78.833 10.995h-7.261l-7.261 8.298v-18.671h-6.224v31.118h6.224v-10.373l7.674 10.373h7.348l-8.798-11.342z"></path>
<path d="M33.193 10.995h5.865v2.989h0.064c0.894-1.612 3.535-3.249 6.8-3.249 6.267 0 8.016 3.977 8.016 9.491v11.514h-6.224v-10.379c0-3.054-1.102-5.18-3.678-5.18-3.128 0-4.62 2.477-4.62 5.595v9.964h-6.224v-20.746z"></path>
<path d="M22.82 31.741h6.224v-20.746h-6.224v20.746zM25.934 7.468c2.062 0 3.732-1.672 3.732-3.734s-1.67-3.734-3.732-3.734c-2.060 0-3.736 1.672-3.736 3.734s1.676 3.734 3.736 3.734z"></path>
<path d="M6.224 0.622h-6.224v31.118h18.671v-6.224h-12.447z"></path>
</symbol>
<symbol id="icon-articles" viewBox="0 0 32 32">
<path d="M17.6 17.6h8v1.6h-8v-1.6zM25.6 9.6h-19.2v4.8h19.2v-4.8zM17.6 22.4h8v-1.6h-8v1.6zM32 3.2v20.8c0 2.651-2.149 4.8-4.8 4.8h-22.4c-2.651 0-4.8-2.149-4.8-4.8v-20.8h32zM28.8 6.4h-25.6v17.6c0 0.883 0.718 1.6 1.6 1.6h22.4c0.882 0 1.6-0.717 1.6-1.6v-17.6zM14.4 17.6h-8v4.8h8v-4.8z"></path>
</symbol>
<symbol id="icon-people" viewBox="0 0 29 32">
<path d="M14.4 22.4v9.6h-14.4v-9.6c0-2.72 2.080-4.8 4.8-4.8h4.8c2.72 0 4.8 2.080 4.8 4.8zM23.2 17.6c3.040 0 5.6-2.56 5.6-5.6s-2.56-5.6-5.6-5.6-5.6 2.56-5.6 5.6 2.56 5.6 5.6 5.6zM24.8 20.8h-3.2c-2.24 0-4 1.76-4 4v7.2h11.2v-7.2c0-2.24-1.76-4-4-4zM7.2 0c-4 0-7.2 3.2-7.2 7.2s3.2 7.2 7.2 7.2 7.2-3.2 7.2-7.2-3.2-7.2-7.2-7.2z"></path>
</symbol>
<symbol id="icon-learning" viewBox="0 0 32 32">
<path d="M30.667 4v0c0.736 0 1.333 0.597 1.333 1.333v21.333c0 0.736-0.597 1.333-1.333 1.333h-29.333c-0.736 0-1.333-0.597-1.333-1.333v-21.333c0-0.736 0.597-1.333 1.333-1.333h29.333zM2.667 25.333h26.667v-18.667h-26.667v18.667z"></path>
<path d="M5.333 12v-2.667h8v2.667h-8zM5.333 17.333v-2.667h8v2.667h-8zM5.333 22.667v-2.667h8v2.667h-8zM2.667 25.333h13.333v-18.667h-13.333v18.667z"></path>
<path d="M18.667 12h8v-2.667h-8v2.667zM18.667 17.333h8v-2.667h-8v2.667zM26.667 22.667h-8v-2.667h8v2.667z"></path>
<path d="M13.333 10.045v11.911c0 0.206 0.167 0.373 0.373 0.373 0.079 0 0.153-0.025 0.213-0.067l-0.001 0.001 8.577-5.915c0.104-0.075 0.171-0.196 0.171-0.333 0-0.005-0-0.011-0-0.016l0 0.001c0-0.005 0-0.010 0-0.015 0-0.136-0.067-0.257-0.17-0.331l-0.001-0.001-8.577-5.916c-0.059-0.041-0.133-0.066-0.212-0.066-0.206 0-0.373 0.167-0.373 0.373v0z"></path>
</symbol>
<symbol id="icon-vacancies" viewBox="0 0 36 32">
<path d="M26.667 7.111v-1.778c0-3.022-2.311-5.333-5.333-5.333h-7.111c-3.022 0-5.333 2.311-5.333 5.333v1.778h-8.889v7.111c0 3.022 2.311 5.333 5.333 5.333h24.889c3.022 0 5.333-2.311 5.333-5.333v-7.111h-8.889zM12.444 5.333c0-1.067 0.711-1.778 1.778-1.778h7.111c1.067 0 1.778 0.711 1.778 1.778v1.778h-10.667v-1.778zM30.222 21.333c2.133 0 4.089-0.889 5.333-2.489v7.822c0 3.022-2.311 5.333-5.333 5.333h-24.889c-3.022 0-5.333-2.311-5.333-5.333v-7.822c1.244 1.6 3.2 2.489 5.333 2.489h24.889z"></path>
</symbol>
<symbol id="icon-games" viewBox="0 0 34 32">
<path d="M19.751 18.951c0.597-0.598 1.429-0.969 2.342-0.969 1.518 0 2.794 1.017 3.189 2.406 0.21 0.751 0.686 1.397 1.308 1.825l6.209-6.209-6.209-6.209 0.097-0.137c0.428-0.557 1.033-0.977 1.728-1.171 1.389-0.396 2.406-1.671 2.406-3.189 0-0.912-0.372-1.744-0.969-2.342s-1.429-0.969-2.342-0.969c-1.518 0-2.794 1.017-3.189 2.406-0.194 0.694-0.614 1.3-1.171 1.728l-0.137 0.097-6.217-6.218-6.209 6.209c0.436 0.63 1.074 1.098 1.825 1.316 1.389 0.396 2.406 1.671 2.406 3.189 0 0.912-0.371 1.744-0.969 2.342s-1.429 0.969-2.342 0.969c-1.518 0-2.794-1.017-3.189-2.406-0.21-0.751-0.686-1.397-1.308-1.825l-6.209 6.201 6.209 6.209-0.097 0.137c-0.428 0.557-1.034 0.977-1.728 1.171-1.389 0.396-2.406 1.672-2.406 3.19 0 0.912 0.371 1.744 0.969 2.342s1.429 0.969 2.342 0.969c1.518 0 2.794-1.017 3.19-2.406 0.194-0.694 0.614-1.3 1.171-1.728l0.137-0.097 6.209 6.209 6.209-6.209c-0.436-0.63-1.074-1.098-1.825-1.316-1.389-0.396-2.406-1.672-2.406-3.19 0-0.912 0.372-1.744 0.969-2.342l0.008 0.016z"></path>
</symbol>
<symbol id="icon-download" viewBox="0 0 32 32">
<path d="M28 22.667v-12c0-2.213-1.787-4-4-4h-16c-2.213 0-4 1.787-4 4v12h-2.667v1.333c0 1.467 1.2 2.667 2.667 2.667h24c1.467 0 2.667-1.2 2.667-2.667v-1.333h-2.667zM14.667 8h2.667v1.333h-2.667v-1.333zM25.333 22.667h-6.667c0 0.733-0.6 1.333-1.333 1.333h-2.667c-0.733 0-1.333-0.6-1.333-1.333h-6.667v-10.667c0-0.733 0.6-1.333 1.333-1.333h16c0.733 0 1.333 0.6 1.333 1.333v10.667z"></path>
</symbol>
<symbol id="icon-arrow-vertical" viewBox="0 0 32 32">
<path d="M16 14l-11.8 8-2.2-3 12.4-8.4c1-0.6 2.4-0.6 3.4 0l12.2 8.4-2.2 3-11.8-8z"></path>
</symbol>
<symbol id="icon-arrow-horizontal" viewBox="0 0 32 32">
<path d="M22 2l-9.22 14 9.22 14h-4.78l-9.22-14 9.22-14z"></path>
</symbol>
</defs>
</svg>
